HIERARCHY
ROOT Hips
{
  OFFSET 57.8838 95.319 338.509
  CHANNELS 6 Xposition Yposition Zposition Zrotation Xrotation Yrotation
  JOINT LeftUpLeg
  {
    OFFSET 8.64259 1.95398 -2.38835
    CHANNELS 3 Zrotation Xrotation Yrotation
    JOINT LeftLeg
    {
      OFFSET 43.7702 0 0
      CHANNELS 3 Zrotation Xrotation Yrotation
      JOINT LeftFoot
      {
        OFFSET 40.6238 0 0
        CHANNELS 3 Zrotation Xrotation Yrotation
        JOINT LeftToeBase
        {
          OFFSET 12.7242 0 0
          CHANNELS 3 Zrotation Xrotation Yrotation
          End Site
          {
            OFFSET 0 0 0
          }
        }
      }
    }
  }
  JOINT RightUpLeg
  {
    OFFSET -8.2249 1.95398 -2.59336
    CHANNELS 3 Zrotation Xrotation Yrotation
    JOINT RightLeg
    {
      OFFSET 43.5653 0 0
      CHANNELS 3 Zrotation Xrotation Yrotation
      JOINT RightFoot
      {
        OFFSET 40.6238 0 0
        CHANNELS 3 Zrotation Xrotation Yrotation
        JOINT RightToeBase
        {
          OFFSET 12.7242 0 0
          CHANNELS 3 Zrotation Xrotation Yrotation
          End Site
          {
            OFFSET 0 0 0
          }
        }
      }
    }
  }
  JOINT Spine
  {
    OFFSET 0.165834 0.87714 6.61349
    CHANNELS 3 Zrotation Xrotation Yrotation
    JOINT Spine1
    {
      OFFSET 7.38963 1.71661e-005 0
      CHANNELS 3 Zrotation Xrotation Yrotation
      JOINT Spine2
      {
        OFFSET 11.9445 1.14441e-005 0
        CHANNELS 3 Zrotation Xrotation Yrotation
        JOINT Spine3
        {
          OFFSET 14.7254 4.19617e-005 0
          CHANNELS 3 Zrotation Xrotation Yrotation
          JOINT Spine4
          {
            OFFSET 10.9679 0 0
            CHANNELS 3 Zrotation Xrotation Yrotation
            JOINT RightShoulder
            {
              OFFSET 2.46616 -1.6653 3.69651
              CHANNELS 3 Zrotation Xrotation Yrotation
              JOINT RightArm
              {
                OFFSET 13.0012 0 0
                CHANNELS 3 Zrotation Xrotation Yrotation
                JOINT RightForeArm
                {
                  OFFSET 28.7848 1.62311e-005 0
                  CHANNELS 3 Zrotation Xrotation Yrotation
                  JOINT RightHand
                  {
                    OFFSET 26.5688 1.62095e-005 0
                    CHANNELS 3 Zrotation Xrotation Yrotation
                    End Site
                    {
                      OFFSET 0 0 0
                    }
                  }
                }
              }
            }
            JOINT LeftShoulder
            {
              OFFSET 2.38034 -1.29275 -3.7523
              CHANNELS 3 Zrotation Xrotation Yrotation
              JOINT LeftArm
              {
                OFFSET 16.3182 6.07031e-005 0
                CHANNELS 3 Zrotation Xrotation Yrotation
                JOINT LeftForeArm
                {
                  OFFSET 27.0901 0 0
                  CHANNELS 3 Zrotation Xrotation Yrotation
                  JOINT LeftHand
                  {
                    OFFSET 24.5451 1.51738e-005 0
                    CHANNELS 3 Zrotation Xrotation Yrotation
                    End Site
                    {
                      OFFSET 0 0 0
                    }
                  }
                }
              }
            }
            JOINT Neck
            {
              OFFSET 5.0226 -0.0266342 0
              CHANNELS 3 Zrotation Xrotation Yrotation
              JOINT Head
              {
                OFFSET 6.69364 2.86102e-005 0
                CHANNELS 3 Zrotation Xrotation Yrotation
                End Site
                {
                  OFFSET 0 0 0
                }
              }
            }
          }
        }
      }
    }
  }
}
MOTION
Frames:	9
Frame Time:	0.0416667
-1.90187 14.9426 -51.6507 168.627 -4.35809 169.608 -135.919 64.4996 31.0992 -135.154 1.05209 6.80439 49.4711 -12.6284 -2.58262 11.2698 -9.16854 7.79711 163.038 68.5906 66.617 -106.751 -30.8728 -0.13579 54.5914 16.1669 5.55802 18.4251 14.8436 -3.42597 -0.874012 14.6444 -90.9042 -2.43839 -2.05206 -1.91649 -14.109 -2.13439 -1.82433 -36.6396 -1.3814 -2.44442 -16.627 -1.38139 -2.44442 93.7964 -19.8082 -102.441 101.77 -33.9667 37.2359 -19.8604 -6.96163 -44.0355 -73.437 -10.6448 9.27285 -86.1891 -41.3833 83.0234 -14.3166 4.11251 -6.75828 2.09714 48.0049 -32.1517 -0.80207 -0.272932 -17.6199 -44.0215 1.94156 -15.3262 -1.15033 -2.01828 0.722084 
-1.87315 14.8493 -51.6071 169.243 -4.76486 170.987 -135.95 63.5673 32.4052 -137.084 -0.657151 6.88936 50.2759 -11.4712 -1.12254 11.561 -8.7673 6.78086 170.986 71.9248 58.731 -115.765 -32.3457 -1.5352 54.5799 16.3972 4.57961 18.1195 15.2969 -3.49013 -0.783192 14.8816 -91.0051 -2.91365 -1.90132 -2.10999 -14.5848 -1.99232 -2.0243 -37.1114 -1.17953 -2.58364 -17.0987 -1.17952 -2.58363 93.5172 -18.134 -103.784 100.229 -36.6661 32.5175 -13.5954 -8.85567 -38.0599 -76.7819 -11.3236 9.31217 -86.2427 -38.7234 82.4323 -15.7692 4.41636 -11.2769 -4.81218 51.7896 -23.5162 -1.06534 -0.234783 -17.2547 -45.4923 2.00902 -14.9607 0.997188 -2.06339 0.797906 
-1.79576 14.9745 -51.4648 169.58 -6.05284 172.708 -138.006 63.1483 35.0687 -137.457 -2.92465 6.85777 53.0716 -7.44083 1.79567 15.7828 -6.7044 6.89412 178.019 72.7897 52.6785 -121.402 -33.6606 -2.11063 54.8821 15.8663 2.90537 17.2893 16.4997 -3.56518 -0.726309 14.9732 -90.9905 -3.09505 -1.78134 -2.07527 -14.7663 -1.87093 -1.99489 -37.2925 -1.07551 -2.51446 -17.2798 -1.07551 -2.51447 92.88 -19.0022 -104.96 96.0153 -38.7877 27.7205 -6.75842 -8.64551 -31.6243 -79.3953 -10.7325 7.92231 -86.0354 -35.4852 82.1461 -19.5019 3.17192 -11.7545 -6.99891 56.3625 -18.2908 -5.14236 0.315515 -20.7019 -45.304 2.18634 -14.6853 0.90657 -1.75775 1.03464 
-1.92589 15.2643 -50.9563 170.033 -8.19965 174.568 -143.279 64.6016 41.6775 -136.638 -3.39468 6.81109 52.7864 -6.79013 5.31546 20.1027 -4.76071 7.85628 -179.097 73.9695 52.3517 -125.39 -33.7888 -2.40348 55.6049 14.5077 1.36299 16.5534 17.4206 -3.22194 -0.560216 15.0578 -91.0448 -3.2619 -1.46818 -2.15497 -14.9337 -1.56158 -2.08829 -37.4567 -0.752882 -2.49639 -17.4441 -0.752883 -2.49638 92.3342 -21.6718 -105.105 90.4203 -39.9442 24.037 -2.10441 -9.69413 -26.0404 -80.6253 -10.1584 6.9763 -86.0919 -34.6422 81.8703 -21.1779 3.31081 -11.2432 -10.8218 55.8373 -14.3379 -1.88292 -0.123656 -19.1277 -42.6287 1.46897 -12.841 0.529878 -1.71292 -0.405544 
-1.88125 15.9849 -50.0445 168.601 -12.3326 176.607 -143.792 68.8454 42.7189 -137.691 -2.17827 6.49627 52.2723 -6.80787 6.14986 22.3764 -3.55978 7.28185 173.131 77.0584 61.3504 -130.357 -32.1419 -2.73081 57.4105 11.4188 -1.04305 17.1686 16.225 -2.25319 -0.535037 15.1176 -91.2855 -3.38722 -1.49846 -2.62518 -15.0598 -1.6125 -2.55676 -37.5755 -0.640611 -2.95387 -17.5629 -0.640605 -2.95388 91.3499 -27.1382 -105.102 82.24 -42.4392 21.0079 0.674275 -11.0722 -21.7969 -83.2797 -10.5565 6.87316 -86.4661 -34.2917 81.1118 -22.1111 3.77988 -10.6824 -12.7468 55.2389 -12.6721 -0.380678 -0.331658 -18.1737 -40.3301 1.06627 -11.7185 1.99634 -1.50464 1.27623 
-1.61132 17.2341 -47.7853 167.587 -16.2418 174.32 -133.438 68.3615 32.8443 -139.747 -2.2392 6.43397 53.2353 -5.20807 7.56515 27.0199 -1.47953 9.28428 -161.241 78.1886 36.6717 -139.592 -34.0077 -2.12183 59.375 7.27339 -2.25975 21.1857 11.0388 -3.87673 -0.830905 14.9646 -91.1525 -3.08525 -2.04423 -2.41322 -14.7566 -2.14843 -2.32096 -37.2795 -1.2248 -2.91569 -17.2668 -1.22479 -2.91569 91.2675 -31.7674 -103.637 74.6126 -42.3872 17.9979 3.62369 -14.0666 -17.3986 -81.9677 -10.6353 7.2408 -87.1709 -35.3925 80.0835 -23.2815 1.74149 -10.2815 -18.2341 62.4864 -5.41181 7.71013 -1.20278 -16.8291 -42.7111 0.708363 -10.4329 4.13246 -1.81505 1.01109 
-0.575972 18.4373 -44.4979 166.915 -20.8901 170.65 -119.464 62.8705 18.7485 -141.839 -8.16631 7.08658 56.2086 -1.05169 9.95027 30.8462 0.437844 9.67731 -134.599 73.4107 10.2085 -146.579 -36.8866 -0.83014 61.2547 1.63261 -6.00966 23.8213 7.47109 -5.05974 -1.28439 14.467 -90.8601 -2.09217 -2.85657 -1.88318 -13.7612 -2.93668 -1.7556 -36.3014 -2.15873 -2.65457 -16.2888 -2.15872 -2.65457 92.0688 -34.3642 -101.313 69.6819 -41.0238 16.4148 6.49905 -17.3085 -12.9093 -84.1405 -10.6491 6.80803 -86.9506 -37.4468 80.9434 -24.5231 -0.991074 -9.52257 -21.8681 68.315 0.492208 8.62738 -1.18047 -16.0572 -46.4404 0.840234 -9.23575 6.10585 -1.6281 1.99433 
0.93285 18.7164 -41.0056 164.479 -24.0166 167.195 -111.975 55.3045 8.48949 -144.131 -14.5093 7.90216 58.053 1.90622 12.2684 33.8851 1.97477 9.63643 -127.327 67.0073 0.621317 -148.195 -39.9613 0.0057625 61.0138 0.642194 -8.24114 25.7 4.56337 -3.83845 -1.86124 14.1648 -90.8077 -1.50035 -3.99251 -1.83923 -13.1662 -4.06958 -1.66153 -35.7263 -3.25528 -2.95467 -15.7136 -3.25528 -2.95467 93.005 -36.4845 -99.0082 65.9645 -40.8932 17.1622 7.7485 -20.0279 -10.6722 -89.1215 -10.8392 5.99661 -86.722 -37.3333 81.3169 -28.9082 -3.90156 -7.54 -19.0737 74.4448 -0.106206 11.4617 -1.18896 -14.4468 -47.4122 0.257193 -7.30385 7.58669 -1.58034 3.36765 
2.17388 19.1228 -38.3504 159.444 -27.4154 162.144 -108.933 48.4939 0.931868 -145.558 -17.0163 8.36965 59.0378 4.08247 14.7501 37.0193 3.60398 11.2603 -125.502 61.069 -5.45887 -149.646 -42.5782 0.692428 62.3722 -2.54131 -9.33812 28.855 0.059795 -4.02131 -2.50158 14.1035 -90.8403 -1.39848 -5.28023 -1.98384 -13.0598 -5.36239 -1.74898 -35.6481 -4.43985 -3.48099 -15.6354 -4.43985 -3.48098 92.1953 -43.971 -98.6911 55.3042 -41.4654 15.346 9.74345 -21.7503 -8.61427 -83.9421 -11.6936 8.0105 -86.7297 -37.6022 81.3603 -32.3636 -7.32486 -5.86629 -15.7607 78.6137 -0.119241 11.8868 -1.15602 -14.003 -46.9127 -0.495505 -4.68747 10.5123 -1.31331 4.67518 
